<svg xmlns="http://www.w3.org/2000/svg" enable-background="new 0 0 313.96 293.71" viewBox="0 0 313.96 293.71"><polygon fill="#60ad88" points="133.663 205.059 133.642 210.732 116.126 220.911 116.147 215.238"/><polygon fill="#73bc9c" points="116.147 215.238 116.126 220.911 76.198 197.859 76.22 192.186"/><polygon fill="#8ccfb1" points="133.663 205.059 116.147 215.238 76.22 192.186 93.735 182.007"/><path fill="#60ad88" d="M122.064,205.823c1.499,0.866,1.508,2.276,0.009,3.147c-1.498,0.87-3.933,0.871-5.432,0.005
						c-1.508-0.87-1.516-2.281-0.018-3.152C118.121,204.952,120.556,204.952,122.064,205.823z M119.612,207.248
						c-0.228-0.131-0.287-0.321-0.137-0.409c0.159-0.092,0.487-0.058,0.714,0.073c0.228,0.131,0.287,0.321,0.128,0.413l0.522,0.301
						c0.368-0.214,0.392-0.559,0.096-0.846l0.368-0.214l-0.522-0.301l-0.368,0.214c-0.496-0.17-1.101-0.16-1.469,0.053
						c-0.444,0.258-0.374,0.715,0.148,1.017c0.228,0.131,0.287,0.321,0.136,0.409c-0.159,0.092-0.487,0.058-0.714-0.073
						c-0.228-0.131-0.287-0.321-0.128-0.413l-0.531-0.306c-0.368,0.214-0.391,0.569-0.087,0.851l-0.368,0.214l0.522,0.301
						l0.368-0.214c0.488,0.175,1.092,0.156,1.461-0.058C120.195,208.001,120.126,207.544,119.612,207.248"/><path fill="#60ad88" d="M92.373,196.524l-0.368,0.214c0.295,0.287,0.281,0.637-0.088,0.851l-0.531-0.306
						c0.159-0.092,0.099-0.282-0.128-0.413c-0.227-0.131-0.555-0.165-0.714-0.073c-0.151,0.088-0.091,0.277,0.136,0.409
						c0.522,0.302,0.592,0.759,0.14,1.021c-0.36,0.209-0.973,0.224-1.461,0.049l-0.368,0.214l-0.522-0.302l0.368-0.214
						c-0.304-0.282-0.272-0.633,0.088-0.842l0.522,0.302c-0.151,0.088-0.091,0.277,0.136,0.409c0.228,0.131,0.555,0.165,0.706,0.078
						c0.159-0.092,0.099-0.282-0.128-0.413c-0.522-0.301-0.583-0.754-0.14-1.012c0.368-0.214,0.964-0.229,1.461-0.058l0.368-0.214
						L92.373,196.524z"/><polygon fill="#60ad88" points="90.011 184.176 93.744 182.007 121.946 198.289 118.213 200.458"/><polygon fill="#73bc9c" points="123.841 199.383 120.109 201.553 119.222 202.068 117.327 200.974 118.213 200.458 121.946 198.289"/><polygon fill="#60ad88" points="123.841 199.383 133.663 205.054 129.931 207.223 120.109 201.553"/><path fill="#60ad88" d="M92.645,198.639c0.427-0.248,0.71-0.549,0.826-0.87l14.733,8.506l-2.326,1.352l-14.733-8.506
							C91.699,199.053,92.219,198.887,92.645,198.639z"/><polygon fill="#73bc9c" points="110.945 206.878 110.1 207.369 107.773 208.721 106.325 209.563 104.43 208.468 105.878 207.627 108.205 206.275 109.05 205.784"/><polygon fill="#60ad88" points="110.1 207.369 117.487 211.634 115.161 212.986 107.773 208.721"/><path fill="#60ad88" d="M89.673,195.576c-0.546,0.073-1.073,0.234-1.5,0.482c-0.427,0.248-0.702,0.554-0.826,0.87
						l-7.236-4.178l2.326-1.352L89.673,195.576z"/><polygon fill="#73bc9c" points="117.397 203.128 112.77 205.818 110.874 204.723 115.502 202.034"/><polygon fill="#fff" points="97.575 190.467 90.847 194.385 84.052 190.453 90.794 186.548"/><polygon fill="#2d3a74" points="95.639 190.479 94.961 190.873 94.337 190.513 95.015 190.119"/><polygon fill="#2d3a74" points="93.268 191.349 93.058 191.471 92.865 191.359 93.074 191.237"/><polygon fill="#2d3a74" points="92.11 191.495 91.9 191.617 91.715 191.51 91.924 191.388"/><polygon fill="#2d3a74" points="91.393 188.028 90.715 188.422 90.092 188.062 90.77 187.668"/><polygon fill="#2d3a74" points="92.775 188.825 92.574 188.932 92.338 188.825 92.095 188.937 91.876 188.83 91.633 188.952 91.448 188.845 92.126 188.451"/><polygon fill="#2d3a74" points="89.484 188.884 89.274 189.005 89.056 188.888 88.796 189.01 88.636 188.908 89.079 188.65"/><polygon fill="#2d3a74" points="90.392 189.137 90.199 189.248 89.955 189.136 89.729 189.268 89.536 189.156 89.779 189.015 89.551 188.883 89.752 188.767"/><polygon fill="#2d3a74" points="94.532 189.278 94.331 189.394 92.638 188.417 92.839 188.3 93.69 188.791"/><polygon fill="#2d3a74" points="91.326 189.394 90.899 189.642 90.486 189.404 90.913 189.156"/><polygon fill="#2d3a74" points="89.453 189.428 89.261 189.55 89.244 189.55 89.026 189.676 88.833 189.564 89.26 189.316"/><polygon fill="#2d3a74" points="88.765 189.564 88.556 189.686 88.362 189.574 88.572 189.453"/><polygon fill="#2d3a74" points="89.212 189.822 89.003 189.944 88.817 189.837 89.027 189.715"/><polygon fill="#2d3a74" points="94.282 189.696 93.605 190.09 93.419 189.983 93.629 189.842 93.443 189.715 93.635 189.574 93.45 189.438 93.634 189.321"/><polygon fill="#2d3a74" points="93.069 190.401 92.642 190.649 92.23 190.411 92.657 190.163"/><polygon fill="#2d3a74" points="87.284 190.416 86.606 190.809 85.983 190.45 86.661 190.056"/><path fill="#2d3a74" d="M86.683,189.506l1.55,0.895l-1.64,0.953l-1.55-0.895L86.683,189.506z M86.591,191.111
						l1.222-0.71l-1.137-0.657l-1.222,0.71L86.591,191.111L86.591,191.111z"/><polygon fill="#2d3a74" points="93.745 191.072 93.544 191.189 93.316 191.057 93.074 191.199 92.88 191.087 93.106 190.955 92.912 190.814 93.104 190.702"/><path fill="#2d3a74" d="M95.037,189.569l1.55,0.895l-1.64,0.953l-1.55-0.895L95.037,189.569z M94.954,191.179
						l1.222-0.71l-1.137-0.657l-1.222,0.71L94.954,191.179L94.954,191.179z"/><polygon fill="#2d3a74" points="91.638 191.223 91.42 191.349 90.763 190.97 90.512 191.096 90.285 190.984 90.034 191.13 90.228 191.262 89.776 191.524 88.984 191.067 89.436 190.805 89.655 190.912 89.906 190.766 89.72 190.639 89.938 190.493 89.281 190.114 89.498 189.988"/><polygon fill="#2d3a74" points="92.797 191.359 92.371 191.607 92.168 191.49 92.369 191.374 92.386 191.374 92.604 191.247"/><polygon fill="#2d3a74" points="93.948 191.461 93.505 191.719 93.328 191.626 93.537 191.476 93.335 191.349 93.544 191.228"/><polygon fill="#2d3a74" points="91.144 191.52 90.717 191.768 90.305 191.529 90.731 191.281"/><polygon fill="#2d3a74" points="92.564 191.758 92.355 191.88 92.161 191.768 92.371 191.646"/><polygon fill="#2d3a74" points="90.182 192.079 89.504 192.473 88.856 192.098 89.056 191.991 89.283 192.103 89.535 191.986 89.754 192.093 89.997 191.972"/><polygon fill="#2d3a74" points="88.984 192.502 88.783 192.618 87.941 192.132 87.09 191.641 87.29 191.524"/><polygon fill="#2d3a74" points="94.646 191.583 92.763 192.677 92.594 192.57 94.461 191.486"/><path fill="#2d3a74" d="M90.928,191.957l1.55,0.895l-1.64,0.953l-1.55-0.895L90.928,191.957z M90.845,193.567
						l1.222-0.71l-1.137-0.656l-1.222,0.71L90.845,193.567L90.845,193.567z"/><path fill="#2d3a74" d="M90.792,187.118l1.55,0.895l-1.64,0.953l-1.55-0.895L90.792,187.118z M90.7,188.723l1.222-0.71
						l-1.137-0.657l-1.222,0.71L90.7,188.723L90.7,188.723z"/><polygon fill="#2d3a74" points="93.373 189.161 93.18 189.273 92.86 189.088 93.053 188.976"/><polygon fill="#2d3a74" points="89.469 189.156 89.259 189.277 89.066 189.166 89.275 189.044"/><polygon fill="#2d3a74" points="88.859 188.242 89.036 188.354 87.17 189.438 86.976 189.336"/><polygon fill="#2d3a74" points="89.915 189.413 89.706 189.535 89.521 189.428 89.73 189.307"/><polygon fill="#2d3a74" points="88.302 189.297 88.093 189.448 88.296 189.574 88.086 189.696 87.682 189.462 88.126 189.204"/><polygon fill="#2d3a74" points="88.75 189.837 88.524 189.968 88.718 190.109 88.526 190.221 87.886 189.851 88.086 189.735 88.314 189.866 88.557 189.725"/><polygon fill="#2d3a74" points="92.646 189.856 92.186 190.124 91.967 190.007 91.707 190.158 91.91 190.284 91.692 190.43 92.349 190.809 92.132 190.936 89.992 189.701 90.21 189.574 90.867 189.954 91.118 189.827 91.328 189.939 91.588 189.788 91.394 189.667 91.854 189.399"/><polygon fill="#2d3a74" points="92.813 191.087 92.604 191.208 92.418 191.101 92.628 190.98"/><polygon fill="#2d3a74" points="88.202 190.946 88.002 191.082 88.187 191.208 87.986 191.354 88.18 191.485 87.996 191.602 87.348 191.228 88.017 190.839"/><g><polygon fill="#2d3a74" points="88.77 191.836 88.577 191.948 88.257 191.763 88.45 191.651"/></g><g><polygon fill="#2d3a74" points="92.095 191.768 91.852 191.909 92.079 192.04 91.878 192.157 91.238 191.787 91.431 191.675 91.675 191.787 91.901 191.656"/></g><g><polygon fill="#2d3a74" points="92.834 191.913 92.994 192.016 92.551 192.273 92.146 192.04 92.356 191.918 92.574 192.035"/></g><g><polygon fill="#2d3a74" points="91.53 192.867 90.852 193.261 90.228 192.901 90.906 192.507"/></g><g><polygon fill="#2d3a74" points="89.4 190.513 88.974 190.761 88.561 190.523 88.988 190.275"/></g><g><path fill="#4a5f93" d="M235.659,104.115l-75.824-43.964c-1.726-1.007-3.292-1.108-4.446-0.469l-4.007,2.282
								c1.168-0.663,2.734-0.561,4.459,0.445l75.836,44.001c3.464,1.99,6.256,6.901,6.249,10.929l-0.218,45.255
								c0.001,2.032-0.731,3.449-1.885,4.088l3.992-2.259c1.168-0.662,1.877-2.092,1.9-4.111l0.203-45.232
								C241.938,111.029,239.134,106.143,235.659,104.115z"/><path fill="#2d3a74" d="M237.92,117.351c0.019-4.04-2.793-8.942-6.253-10.949l-75.819-43.989
								c-3.461-2.006-6.32-0.391-6.339,3.649l-0.21,45.236c-0.019,4.04,2.81,8.953,6.271,10.959l75.819,43.989
								c3.461,2.006,6.302,0.381,6.321-3.659L237.92,117.351z"/><path fill="#4a5f93" d="M230.82,138.143c-0.007,1.464,0.976,3.184,2.237,3.916c1.261,0.732,2.254,0.158,2.261-1.306
									l0.037-8.15c0.007-1.458-0.976-3.178-2.237-3.91c-1.261-0.732-2.254-0.158-2.261,1.3L230.82,138.143z"/><path fill="#4a5f93" d="M153.056,97.07c-0.002,0.354,0.244,0.778,0.549,0.955c0.305,0.177,0.548,0.036,0.549-0.317
									l0.066-14.451c0.002-0.354-0.239-0.775-0.543-0.951c-0.305-0.177-0.553-0.039-0.555,0.314L153.056,97.07z"/><path fill="#4a5f93" d="M153.697,78.788c-0.51-0.297-0.926-0.056-0.929,0.526c-0.003,0.592,0.408,1.313,0.919,1.609
								c0.51,0.296,0.917,0.05,0.92-0.542C154.609,79.799,154.207,79.084,153.697,78.788z"/><path fill="#4a5f93" d="M153.15,76.647c-0.002,0.348,0.244,0.778,0.549,0.954c0.305,0.177,0.548,0.031,0.549-0.317
									c0.002-0.354-0.239-0.781-0.544-0.958C153.4,76.15,153.152,76.294,153.15,76.647z"/><polygon fill="#b7ceff" points="156.233 119.639 228.138 161.363 228.645 107.942 156.476 66.033"/><g><polygon fill="#8294ed" points="228.645 107.941 156.476 66.033 156.437 74.516 228.565 116.401"/></g><g><polygon fill="#d3a5bb" points="165.489 99.307 171.245 95.962 171.226 99.953 165.47 103.298"/><polygon fill="#2d3a74" points="165.47 103.298 171.226 99.953 216.441 125.785 210.685 129.402"/><polygon fill="#7f858d" points="210.704 125.411 216.459 122.067 216.441 126.058 210.685 129.402"/><polygon fill="#8e949e" points="165.489 99.307 171.245 95.962 216.459 122.067 210.704 125.411"/><path fill="#e576ad" d="M163.921,96.602l48.361,27.921l-0.029,7.595l-48.361-27.921L163.921,96.602z M210.685,129.402
								l0.018-3.991l-45.215-26.105l-0.018,3.991L210.685,129.402"/><polygon fill="#d363a1" points="212.282 124.523 218.037 121.178 218.009 128.773 212.253 132.118"/><polygon fill="#fd93bf" points="163.921 96.602 169.677 93.257 218.037 121.178 212.282 124.523"/><g><polygon fill="#a5acb7" points="158.171 198.788 112.957 172.684 112.955 172.01 158.17 198.115"/><path fill="#eaeffa" d="M210.718,125.399l-14.904,8.615c-2.712,1.581-4.918,5.395-4.918,8.524l0.089,31.641
								c0,2.742-1.967,6.11-4.352,7.512l-28.466,16.423l-45.218-26.111l28.466-16.425c2.414-1.4,4.352-4.768,4.352-7.512
								l-0.09-31.64c0-3.131,2.206-6.945,4.918-8.524l14.904-8.586L210.718,125.399z"/><path fill="#a5acb7" d="M210.704,125.411l-0.018,0.685l-14.871,8.586c-2.395,1.383-4.344,4.759-4.336,7.522
								l0.08,31.628c0.009,3.124-2.201,6.952-4.93,8.527l-28.457,16.43l-0.002-0.673l28.457-16.43
								c2.405-1.389,4.354-4.764,4.346-7.516l-0.08-31.628c-0.009-3.136,2.201-6.963,4.92-8.533L210.704,125.411z"/></g></g><g><path fill="#c49494" d="M133.449,146.921l-0.004,25.342c-0.002,0.785-0.519,1.57-1.55,2.169
								c-2.074,1.205-5.449,1.206-7.538,0c-1.051-0.607-1.576-1.403-1.573-2.198l0.004-25.342c-0.002,0.795,0.522,1.591,1.573,2.198
								c2.089,1.206,5.464,1.205,7.538,0C132.93,148.491,133.446,147.707,133.449,146.921z"/><path fill="#e7b8b5" d="M131.898,149.091c-2.072,1.206-5.447,1.206-7.537,0c-2.09-1.206-2.1-3.163-0.023-4.365
								c2.072-1.206,5.447-1.206,7.537,0C133.965,145.928,133.975,147.885,131.898,149.091z"/><path fill="#b7ceff" d="M141.954,164.793c-2.072,1.206-5.447,1.206-7.537,0c-2.09-1.206-2.1-3.163-0.023-4.365
								c2.072-1.206,5.447-1.206,7.537,0C144.021,161.63,144.03,163.586,141.954,164.793z"/><path fill="#8294ed" d="M143.504,162.623L143.5,178.07c-0.002,0.786-0.519,1.57-1.55,2.17
								c-2.074,1.205-5.448,1.206-7.538,0c-1.051-0.607-1.576-1.403-1.573-2.198l0.004-15.447c-0.002,0.795,0.522,1.591,1.573,2.198
								c2.089,1.206,5.464,1.205,7.538,0C142.985,164.193,143.502,163.409,143.504,162.623z"/><g><path fill="#d363a1" d="M153.56,158.534l-0.004,25.342c-0.002,0.786-0.519,1.57-1.55,2.169
								c-2.074,1.205-5.449,1.206-7.538,0c-1.051-0.607-1.576-1.403-1.573-2.198l0.004-25.342c-0.002,0.795,0.522,1.591,1.573,2.198
								c2.089,1.206,5.464,1.205,7.538,0C153.041,160.104,153.557,159.32,153.56,158.534z"/><path fill="#fd93bf" d="M152.009,160.704c-2.072,1.206-5.447,1.206-7.537,0c-2.09-1.206-2.1-3.163-0.023-4.365
								c2.072-1.206,5.447-1.206,7.537,0C154.076,157.541,154.086,159.497,152.009,160.704z"/></g><g><path fill="#60ad88" d="M163.615,172.823l-0.004,16.861c-0.002,0.785-0.519,1.57-1.551,2.169
								c-2.074,1.205-5.448,1.206-7.538,0c-1.051-0.607-1.576-1.403-1.573-2.198l0.004-16.861c-0.002,0.795,0.522,1.591,1.573,2.198
								c2.089,1.206,5.464,1.205,7.538,0C163.096,174.393,163.613,173.608,163.615,172.823z"/><path fill="#8ccfb1" d="M162.065,174.992c-2.072,1.206-5.447,1.206-7.537,0c-2.09-1.206-2.1-3.163-0.023-4.365
								c2.072-1.206,5.447-1.206,7.537,0C164.132,171.829,164.141,173.786,162.065,174.992z"/></g><g><polygon fill="#4a5f93" points="128.611 147.894 129.177 147.566 129.18 146.27 128.614 146.598"/><path fill="#4a5f93" d="M128.39,144.092c-0.701-0.405-1.289-1.216-1.287-1.757l-1.59-0.918l-0.566,0.329l1.59,0.918
										c-0.001,0.54,0.587,1.352,1.288,1.757c0.437,0.252,0.828,0.295,1.061,0.16l0.566-0.329
										C129.219,144.387,128.828,144.345,128.39,144.092z"/><path fill="#4a5f93" d="M128.401,140.233c-0.701-0.404-1.289-1.206-1.288-1.757
										c0.001-0.201,0.083-0.346,0.223-0.427l-0.566,0.329c-0.139,0.082-0.222,0.226-0.222,0.427
										c-0.002,0.55,0.587,1.352,1.288,1.757c1.581,0.913,2.876,2.939,2.872,4.51c-0.002,0.701-0.261,1.192-0.689,1.441
										l0.566-0.329c0.428-0.249,0.687-0.74,0.689-1.441C131.278,143.172,129.982,141.145,128.401,140.233z"/><path fill="#4a5f93" d="M127.051,136.361l0.566-0.329c-0.553-0.161-1.038-0.125-1.401,0.087l-0.566,0.329
										C126.013,136.237,126.498,136.2,127.051,136.361z"/><path fill="#4a5f93" d="M128.641,137.279c1.204,1.039,2.081,2.648,2.077,3.934l0.566-0.329
										c0.004-1.286-0.874-2.895-2.078-3.934l0.004-1.296l-1.589-0.918l-0.566,0.329l1.589,0.918L128.641,137.279z"/><g><path fill="#233163" d="M128.644,135.983l-0.004,1.296c1.204,1.039,2.081,2.648,2.077,3.934l-1.598-0.923
								c0.001-0.54-0.578-1.347-1.279-1.751c-0.701-0.404-1.292-0.273-1.293,0.266c-0.002,0.55,0.587,1.352,1.288,1.757
								c1.581,0.913,2.876,2.939,2.872,4.51c-0.004,1.296-0.887,1.878-2.093,1.526l-0.004,1.296l-1.589-0.918l0.004-1.296
								c-1.204-1.039-2.081-2.638-2.077-3.934l1.59,0.918c-0.002,0.54,0.587,1.352,1.287,1.757c0.701,0.405,1.283,0.269,1.285-0.272
								c0.001-0.55-0.578-1.347-1.279-1.751c-1.59-0.918-2.876-2.939-2.872-4.511c0.004-1.286,0.887-1.878,2.093-1.526l0.004-1.296
								L128.644,135.983z"/></g><g><polygon fill="#4a5f93" points="138.666 163.596 139.232 163.267 139.236 161.971 138.67 162.3"/><path fill="#4a5f93" d="M138.446,159.794c-0.701-0.404-1.289-1.216-1.288-1.757l-1.589-0.918l-0.566,0.329
										l1.589,0.918c-0.001,0.54,0.587,1.352,1.288,1.757c0.437,0.252,0.828,0.295,1.061,0.159l0.566-0.329
										C139.274,160.088,138.883,160.047,138.446,159.794z"/><path fill="#4a5f93" d="M138.457,155.935c-0.701-0.405-1.289-1.206-1.288-1.757
										c0.001-0.201,0.083-0.346,0.222-0.427l-0.566,0.329c-0.14,0.082-0.222,0.226-0.223,0.427
										c-0.002,0.55,0.587,1.352,1.288,1.757c1.581,0.913,2.876,2.939,2.872,4.51c-0.002,0.701-0.261,1.192-0.689,1.441
										l0.566-0.329c0.428-0.249,0.687-0.74,0.689-1.441C141.333,158.874,140.038,156.847,138.457,155.935z"/><path fill="#4a5f93" d="M137.107,152.063l0.566-0.329c-0.553-0.161-1.038-0.125-1.401,0.087l-0.566,0.329
										C136.069,151.939,136.554,151.902,137.107,152.063z"/><path fill="#4a5f93" d="M138.696,152.981c1.204,1.039,2.081,2.648,2.077,3.934l0.566-0.329
										c0.004-1.286-0.873-2.895-2.077-3.934l0.004-1.296l-1.59-0.918l-0.566,0.329l1.59,0.918L138.696,152.981z"/><g><path fill="#233163" d="M138.7,151.685l-0.004,1.296c1.204,1.039,2.081,2.648,2.077,3.934l-1.598-0.923
								c0.002-0.54-0.578-1.347-1.279-1.751c-0.701-0.405-1.292-0.273-1.293,0.266c-0.001,0.55,0.587,1.352,1.288,1.757
								c1.581,0.913,2.876,2.939,2.872,4.51c-0.004,1.296-0.887,1.878-2.093,1.526l-0.004,1.296l-1.59-0.918l0.004-1.296
								c-1.204-1.039-2.081-2.638-2.077-3.934l1.59,0.918c-0.002,0.54,0.587,1.352,1.288,1.757c0.701,0.405,1.283,0.269,1.285-0.272
								c0.002-0.55-0.578-1.347-1.279-1.751c-1.59-0.918-2.876-2.939-2.872-4.511c0.004-1.286,0.887-1.878,2.093-1.526l0.004-1.296
								L138.7,151.685z"/></g></g><g><polygon fill="#4a5f93" points="148.72 159.492 149.286 159.163 149.289 157.867 148.723 158.196"/><path fill="#4a5f93" d="M148.499,155.69c-0.701-0.405-1.289-1.216-1.287-1.757l-1.59-0.918l-0.566,0.329l1.59,0.918
										c-0.001,0.54,0.587,1.352,1.288,1.757c0.437,0.252,0.828,0.295,1.061,0.16l0.566-0.329
										C149.328,155.984,148.937,155.942,148.499,155.69z"/><path fill="#4a5f93" d="M148.51,151.831c-0.701-0.405-1.289-1.207-1.287-1.757c0.001-0.201,0.083-0.346,0.222-0.427
										l-0.566,0.329c-0.139,0.082-0.222,0.226-0.222,0.427c-0.002,0.55,0.587,1.352,1.288,1.757
										c1.581,0.913,2.876,2.939,2.872,4.51c-0.002,0.701-0.261,1.192-0.689,1.441l0.566-0.329
										c0.428-0.249,0.687-0.741,0.689-1.441C151.387,154.77,150.091,152.743,148.51,151.831z"/><path fill="#4a5f93" d="M147.16,147.959l0.566-0.329c-0.553-0.161-1.038-0.125-1.401,0.087l-0.566,0.329
										C146.122,147.835,146.607,147.797,147.16,147.959z"/><path fill="#4a5f93" d="M148.75,148.876c1.204,1.039,2.081,2.648,2.077,3.934l0.566-0.329
										c0.004-1.286-0.874-2.895-2.077-3.934l0.004-1.296l-1.59-0.918l-0.566,0.329l1.59,0.918L148.75,148.876z"/><g><path fill="#233163" d="M148.753,147.58l-0.004,1.296c1.204,1.039,2.081,2.648,2.077,3.934l-1.598-0.923
								c0.002-0.54-0.578-1.347-1.279-1.751c-0.701-0.405-1.292-0.273-1.293,0.266c-0.002,0.55,0.587,1.352,1.288,1.757
								c1.581,0.913,2.876,2.939,2.872,4.51c-0.004,1.296-0.887,1.878-2.093,1.526l-0.004,1.296l-1.59-0.918l0.004-1.296
								c-1.204-1.039-2.081-2.637-2.077-3.934l1.589,0.918c-0.001,0.54,0.587,1.352,1.288,1.757
								c0.701,0.405,1.283,0.269,1.285-0.272c0.002-0.55-0.578-1.347-1.279-1.751c-1.59-0.918-2.876-2.939-2.872-4.511
								c0.004-1.286,0.887-1.878,2.093-1.526l0.004-1.296L148.753,147.58z"/></g></g><g><polygon fill="#4a5f93" points="158.775 173.78 159.341 173.451 159.345 172.155 158.779 172.484"/><path fill="#4a5f93" d="M158.555,169.978c-0.701-0.404-1.289-1.216-1.288-1.757l-1.59-0.918l-0.566,0.329
										l1.59,0.918c-0.001,0.54,0.587,1.352,1.288,1.757c0.437,0.252,0.828,0.295,1.061,0.16l0.566-0.329
										C159.383,170.272,158.992,170.23,158.555,169.978z"/><path fill="#4a5f93" d="M158.566,166.119c-0.701-0.404-1.289-1.206-1.287-1.757
										c0.001-0.201,0.083-0.346,0.223-0.427l-0.566,0.329c-0.139,0.082-0.222,0.226-0.223,0.427
										c-0.001,0.55,0.587,1.352,1.288,1.757c1.581,0.913,2.876,2.939,2.872,4.51c-0.002,0.701-0.261,1.192-0.689,1.441
										l0.566-0.329c0.428-0.249,0.686-0.74,0.689-1.441C161.442,169.058,160.147,167.031,158.566,166.119z"/><path fill="#4a5f93" d="M157.216,162.247l0.566-0.329c-0.553-0.161-1.038-0.125-1.401,0.087l-0.566,0.329
										C156.178,162.123,156.663,162.086,157.216,162.247z"/><path fill="#4a5f93" d="M158.805,163.165c1.204,1.039,2.081,2.648,2.077,3.934l0.566-0.329
										c0.004-1.286-0.874-2.895-2.077-3.934l0.004-1.296l-1.59-0.918l-0.566,0.329l1.59,0.918L158.805,163.165z"/><g><path fill="#233163" d="M158.809,161.869l-0.004,1.296c1.204,1.039,2.081,2.648,2.077,3.934l-1.598-0.923
								c0.001-0.54-0.578-1.347-1.279-1.751c-0.701-0.405-1.292-0.274-1.293,0.266c-0.002,0.55,0.587,1.352,1.288,1.757
								c1.581,0.913,2.876,2.939,2.872,4.51c-0.004,1.296-0.887,1.878-2.093,1.526l-0.004,1.296l-1.589-0.918l0.004-1.296
								c-1.204-1.039-2.081-2.638-2.077-3.934l1.589,0.918c-0.001,0.54,0.587,1.352,1.288,1.757
								c0.701,0.405,1.283,0.269,1.285-0.272c0.002-0.55-0.578-1.347-1.279-1.751c-1.589-0.918-2.876-2.939-2.872-4.511
								c0.004-1.286,0.887-1.878,2.093-1.526l0.004-1.296L158.809,161.869z"/></g></g></g></g><g><polygon fill="#60ad88" points="172.752 152.811 151.101 140.309 151.164 143.524 172.816 156.028"/><polygon fill="#d363a1" points="183.168 152.267 151.101 133.751 151.164 136.966 183.231 155.484"/><polygon fill="#8294ed" points="172.752 139.695 151.101 127.193 151.164 130.408 172.816 142.911"/><polygon fill="#c49494" points="183.168 139.151 151.101 120.635 151.164 123.85 183.231 142.367"/></g></g><g><polygon fill="#d363a1" points="124.003 113.062 124.001 113.873 104.928 153.339 104.931 152.529"/><polygon fill="#f283b5" points="104.931 152.529 104.928 153.339 50.684 144.432 50.686 143.622"/><polygon fill="#fd93bf" points="124.003 113.062 104.931 152.529 50.686 143.622 69.752 104.152"/><g><polygon fill="#a5acb7" points="134.346 125.002 134.344 125.812 84.433 154.818 84.435 154.007"/><polygon fill="#d0d5dd" points="84.435 154.007 84.433 154.818 44.48 131.751 44.482 130.94"/><polygon fill="#eaeffa" points="134.346 125.002 84.435 154.007 44.482 130.94 94.393 101.935"/></g><g><polygon fill="#3f528c" points="94.943 109.498 92.969 110.645 90.981 109.498 92.956 108.351"/><polygon fill="#3f528c" points="93.404 130.648 91.43 131.795 77.831 123.944 79.805 122.797"/><path fill="#3f528c" d="M91.089,140.952l0.083,0.07l-0.088,0.073c-0.752,0.158-1.556,0.198-2.334,0.238
						c-3.948,0.191-8.022,0.389-12.053,0.297c-0.854-0.018-1.753-0.055-2.552-0.268l-0.07-0.099l0.177-0.044
						c0.754,0.202,1.627,0.238,2.456,0.257c4.019,0.092,8.08-0.106,12.016-0.297c0.645-0.029,1.309-0.062,1.929-0.165
						c-1.141-0.249-2.369-0.352-3.572-0.454c-0.659-0.059-1.349-0.113-2.013-0.198c-0.659-0.079-1.392-0.2-1.91-0.499
						c-0.034-0.02-0.068-0.04-0.1-0.061c-0.197-0.128-0.305-0.257-0.325-0.392c-0.019-0.121,0.037-0.234,0.093-0.312
						c0.157-0.246,0.408-0.465,0.686-0.663c-2.105,0.466-3.956,1.034-5.756,1.587l-0.164-0.022l-0.001-0.095
						c0.095-0.07,0.157-0.143,0.227-0.22c-0.145,0.026-0.297,0.04-0.405,0.044l-0.127-0.051l0.044-0.084
						c0.221-0.114,0.567-0.433,0.636-0.627c-0.127,0.051-0.272,0.114-0.417,0.176c-0.562,0.238-1.206,0.51-1.641,0.652l-0.152-0.007
						l-0.038-0.081c0.031-0.062,0.056-0.18,0.074-0.293l0.025-0.11l-0.132,0.062c-0.625,0.29-1.325,0.616-2.097,0.733
						c-0.445,0.067-0.939,0.051-1.202-0.101c-0.069-0.04-0.122-0.089-0.154-0.149c-0.166-0.293,0.364-0.55,0.534-0.634
						c0.517-0.249,1.091-0.531,1.787-0.663c0.278-0.051,0.563-0.077,0.841-0.099c0.317-0.029,0.601-0.055,0.885-0.117
						c0.601-0.121,1.093-0.392,1.553-0.66c0.82-0.484,1.652-1.019,2.168-1.664c0.145-0.172,0.289-0.403,0.237-0.63
						c-0.029-0.106-0.123-0.216-0.259-0.295c-0.108-0.063-0.244-0.106-0.395-0.112c-0.386-0.011-0.701,0.194-0.972,0.388
						c-1.33,0.971-2.812,1.884-4.408,2.709c-0.473,0.246-0.946,0.476-1.535,0.583c-1.365,0.256-2.741-0.209-3.927-0.667
						l-0.032-0.106l0.177-0.022c1.135,0.436,2.448,0.887,3.699,0.652c0.544-0.103,0.992-0.319,1.44-0.55
						c1.583-0.825,3.053-1.73,4.382-2.694c0.309-0.224,0.681-0.462,1.194-0.443c0.221,0.007,0.411,0.065,0.559,0.15
						c0.181,0.105,0.298,0.249,0.33,0.385c0.071,0.268-0.092,0.524-0.249,0.718c-0.528,0.667-1.379,1.213-2.224,1.704
						c-0.473,0.282-0.997,0.564-1.648,0.7c-0.303,0.066-0.626,0.092-0.929,0.121c-0.272,0.026-0.551,0.048-0.803,0.099
						c-0.645,0.117-1.207,0.392-1.699,0.634c-0.379,0.183-0.523,0.333-0.459,0.465c0.019,0.035,0.051,0.064,0.092,0.088
						c0.218,0.126,0.697,0.099,0.953,0.062c0.708-0.11,1.365-0.411,1.996-0.704c0.139-0.066,0.278-0.132,0.416-0.19l0.158-0.004
						l0.051,0.088c-0.038,0.059-0.062,0.176-0.081,0.29l-0.037,0.139c0.41-0.15,0.928-0.37,1.364-0.557
						c0.227-0.095,0.442-0.183,0.612-0.253l0.114-0.015l0.089,0.044c0.147,0.187-0.161,0.528-0.445,0.744
						c0.146-0.026,0.272-0.07,0.341-0.117l0.19-0.015l0.019,0.106c-0.094,0.077-0.163,0.154-0.239,0.235
						c1.788-0.539,3.664-1.1,5.813-1.554l0.152,0.029l-0.006,0.092c-0.372,0.26-0.763,0.524-0.957,0.843
						c-0.063,0.095-0.087,0.176-0.081,0.246c0.02,0.099,0.109,0.202,0.261,0.304c0.026,0.017,0.052,0.033,0.079,0.049
						c0.471,0.272,1.168,0.384,1.79,0.461c0.659,0.081,1.343,0.139,2.001,0.198C88.454,140.519,89.834,140.636,91.089,140.952z"/><polygon fill="#3f528c" points="102.916 125.12 100.942 126.268 87.342 118.416 89.317 117.269"/><polygon fill="#3f528c" points="123.938 126.238 121.963 127.385 96.854 112.888 98.828 111.741"/><polygon fill="#3f528c" points="119.182 129.002 117.207 130.149 92.098 115.652 94.073 114.505"/><polygon fill="#3f528c" points="109.67 134.53 107.696 135.677 82.587 121.18 84.561 120.033"/><polygon fill="#3f528c" points="90.187 112.262 88.213 113.409 86.225 112.262 88.2 111.114"/><polygon fill="#3f528c" points="85.431 115.025 83.457 116.173 81.47 115.025 83.444 113.878"/><g><polygon fill="#3f528c" points="80.675 117.789 78.701 118.937 76.714 117.789 78.688 116.642"/></g><g><polygon fill="#3f528c" points="75.919 120.553 73.945 121.701 71.958 120.553 73.932 119.406"/></g><g><path fill="#e7b8b5" d="M71.594,127.804c3.346,1.932,3.364,5.077,0.039,7.008c-3.33,1.935-8.76,1.935-12.105,0.004
							c-3.352-1.935-3.37-5.08-0.04-7.016C62.812,125.868,68.242,125.868,71.594,127.804z M66.15,130.967
							c-0.514-0.297-0.662-0.726-0.309-0.931c0.347-0.202,1.094-0.121,1.608,0.176c0.521,0.301,0.65,0.726,0.303,0.927l1.187,0.685
							c0.826-0.48,0.879-1.268,0.204-1.913l0.833-0.484l-1.181-0.682l-0.833,0.484c-1.116-0.389-2.477-0.355-3.303,0.125
							c-1.009,0.587-0.87,1.616,0.31,2.298c0.521,0.3,0.656,0.722,0.303,0.927c-0.347,0.202-1.081,0.128-1.602-0.172
							c-0.514-0.297-0.656-0.729-0.309-0.931l-1.181-0.682c-0.833,0.484-0.879,1.268-0.204,1.913l-0.833,0.484l1.181,0.682
							l0.833-0.484c1.116,0.389,2.47,0.359,3.303-0.125C67.47,132.679,67.331,131.649,66.15,130.967"/><path fill="#fff" d="M69.977,129.427l-0.833,0.484c0.674,0.645,0.622,1.433-0.204,1.913l-1.187-0.685
							c0.347-0.202,0.218-0.627-0.303-0.927c-0.514-0.297-1.261-0.378-1.608-0.176c-0.353,0.205-0.205,0.634,0.309,0.931
							c1.181,0.682,1.32,1.712,0.31,2.298c-0.833,0.484-2.187,0.513-3.303,0.125l-0.833,0.484l-1.181-0.682l0.833-0.484
							c-0.674-0.645-0.628-1.43,0.204-1.913l1.181,0.682c-0.347,0.202-0.205,0.634,0.309,0.931c0.521,0.301,1.255,0.374,1.602,0.172
							c0.353-0.205,0.218-0.627-0.303-0.927c-1.181-0.682-1.32-1.712-0.31-2.298c0.826-0.48,2.187-0.513,3.303-0.125l0.833-0.484
							L69.977,129.427z"/></g></g></g><g><polygon fill="#bcc2cc" points="260.566 204.595 260.563 205.649 210.157 234.942 210.16 233.888"/><polygon fill="#d9dfe8" points="210.16 233.888 210.157 234.942 171.081 212.382 171.084 211.327"/><polygon fill="#eaeffa" points="260.566 204.595 210.16 233.888 171.084 211.327 221.49 182.034"/><g><polygon fill="#d0d5dd" points="221.795 209.175 220.565 209.89 199.276 197.599 200.506 196.884"/><polygon fill="#d0d5dd" points="210.804 213.208 209.557 213.933 190.3 202.815 191.547 202.09"/><polygon fill="#d0d5dd" points="229.329 216.984 228.098 217.699 196.289 199.334 197.52 198.62"/><polygon fill="#d0d5dd" points="218.069 213.942 216.837 214.658 193.303 201.07 194.534 200.355"/><polygon fill="#d0d5dd" points="238.687 215.449 237.44 216.174 202.262 195.864 203.509 195.139"/><path fill="#f283b5" d="M221.104,223.352c1.012,0.584,1.61,1.38,1.011,1.728l-10.633,6.179l-35.178-20.31l4.085-2.374
						l5.023,0.41c0.828,0.069,1.811,0.403,2.618,0.869c0.316,0.182,0.606,0.385,0.847,0.6l0.91,0.792
						c0.244,0.211,0.531,0.409,0.841,0.589c0.954,0.551,2.133,0.918,3.003,0.889l2.617-0.086c0.893-0.034,2.064,0.344,2.993,0.88
						c0.646,0.373,1.176,0.823,1.415,1.265c0.234,0.434,0.758,0.879,1.401,1.25c0.911,0.526,2.06,0.902,2.957,0.886l2.502-0.038
						c0.9-0.01,2.038,0.365,2.941,0.886c0.715,0.413,1.282,0.917,1.467,1.392l0.35,0.868c0.195,0.468,0.766,0.979,1.49,1.397
						c0.705,0.407,1.554,0.726,2.342,0.834l3.13,0.439C219.898,222.786,220.561,223.038,221.104,223.352z"/><path fill="#8ca8f7" d="M250.701,203.091l-4.611,2.68l0.038,3.785c-1.679,0-3.344-0.371-4.633-1.115
						c-2.543-1.468-2.573-3.862-0.03-5.34C244.009,201.623,248.158,201.622,250.701,203.091z"/><path fill="#4a5f93" d="M237.753,195.615c2.56,1.478,2.556,3.872,0.013,5.35l-4.624-2.67L237.753,195.615z"/><path fill="#60ad88" d="M237.753,195.615l-4.611,2.68l4.624,2.67c-2.543,1.478-6.659,1.478-9.219,0
						c-2.56-1.478-2.573-3.862-0.03-5.34C231.061,194.147,235.193,194.137,237.753,195.615z"/><path fill="#e576ad" d="M224.805,188.139c2.543,1.468,2.557,3.872,0.013,5.35c-1.263,0.734-2.924,1.106-4.603,1.106
						l-0.022-3.776L224.805,188.139z"/><path fill="#8ca8f7" d="M224.805,188.139l-4.611,2.68l-4.641-2.679C218.096,186.662,222.245,186.661,224.805,188.139z"/><g><path fill="#4a5f93" d="M220.193,190.819l0.022,3.776c-1.679,0-3.344-0.372-4.616-1.106
						c-2.56-1.478-2.59-3.871-0.046-5.349L220.193,190.819z"/></g><g><path fill="#e576ad" d="M250.701,203.091c2.56,1.478,2.573,3.881,0.03,5.359c-1.263,0.734-2.94,1.096-4.603,1.106
						l-0.038-3.785L250.701,203.091z"/></g></g></g><g><path fill="#f283b5" d="M244.153,77.63l-6.291,3.082c-0.797,0.399-1.761,0.063-2.16-0.734l-3.083-6.291
					c-0.388-0.797-0.063-1.762,0.734-2.16l6.291-3.082c0.797-0.388,1.761-0.063,2.16,0.734l3.083,6.291
					C245.285,76.267,244.95,77.232,244.153,77.63z"/><path fill="#ddacab" d="M249.614,74.659l-3.935-4.505c-0.501-0.573-1.374-0.632-1.947-0.132l-4.505,3.935
				c-0.573,0.501-0.632,1.375-0.132,1.948l3.935,4.505c0.501,0.573,1.374,0.632,1.947,0.132l4.505-3.937
				C250.056,76.106,250.115,75.232,249.614,74.659z M248.705,75.715L244.2,79.65c-0.082,0.072-0.207,0.064-0.278-0.018l-3.935-4.506
				c-0.071-0.081-0.063-0.206,0.019-0.277l4.505-3.935c0.082-0.072,0.207-0.064,0.278,0.018l3.935,4.506
				C248.795,75.519,248.787,75.643,248.705,75.715z"/><path fill="#8294ed" d="M123.099,231.284l-6.148-3.438c-0.782-0.439-1.774-0.158-2.211,0.624l-3.438,6.149
				c-0.437,0.782-0.157,1.774,0.625,2.211l6.148,3.438c0.782,0.437,1.774,0.158,2.211-0.625l3.438-6.148
				C124.161,232.714,123.88,231.721,123.099,231.284z M119.07,238.963c-0.062,0.112-0.204,0.152-0.316,0.089l-6.148-3.438
				c-0.112-0.062-0.152-0.204-0.089-0.316l3.438-6.149c0.063-0.112,0.204-0.152,0.316-0.089l6.148,3.439
				c0.112,0.062,0.152,0.204,0.089,0.316L119.07,238.963z"/><path fill="#8ca8f7" d="M269.14,113.075l-3.935-4.505c-0.501-0.573-1.374-0.632-1.947-0.132l-4.505,3.935
				c-0.573,0.501-0.632,1.375-0.132,1.948l3.935,4.505c0.5,0.573,1.374,0.632,1.947,0.132l4.505-3.937
				C269.582,114.522,269.641,113.647,269.14,113.075z M268.231,114.131l-4.505,3.935c-0.082,0.072-0.207,0.064-0.278-0.018
				l-3.935-4.506c-0.071-0.081-0.063-0.206,0.019-0.277l4.505-3.935c0.082-0.072,0.207-0.064,0.278,0.018l3.935,4.506
				C268.321,113.935,268.313,114.059,268.231,114.131z"/><ellipse cx="76.911" cy="158.903" fill="#d19f9f" rx="5.445" ry="5.37" transform="rotate(-45.001 76.905 158.9)"/><path fill="#73bc9c" d="M130.227,60.312c0.876,3.952-2.567,7.396-6.52,6.52c-1.992-0.441-3.599-2.049-4.04-4.04
				c-0.876-3.952,2.567-7.396,6.52-6.52C128.179,56.713,129.786,58.321,130.227,60.312z"/><path fill="#8ca8f7" d="M260.665,227.028c0.441,1.829-1.165,3.436-2.995,2.995c-0.86-0.207-1.565-0.912-1.772-1.772
				c-0.441-1.829,1.165-3.436,2.995-2.994C259.752,225.463,260.457,226.169,260.665,227.028z"/><path fill="#f283b5" d="M194.041,55.953c0.451,2.381-1.597,4.429-3.978,3.978c-1.322-0.251-2.404-1.332-2.655-2.655
				c-0.451-2.38,1.597-4.429,3.977-3.978C192.708,53.549,193.79,54.631,194.041,55.953z"/><path fill="#f283b5" d="M86.192,147.033c0.382,2.015-1.352,3.749-3.367,3.367c-1.119-0.212-2.035-1.128-2.247-2.247
				c-0.382-2.015,1.352-3.749,3.367-3.367C85.064,144.998,85.98,145.914,86.192,147.033z"/></g></svg>