<?xml version="1.0" encoding="utf-8"?>

<!DOCTYPE svg PUBLIC "-//W3C//DTD SVG 1.1//EN" "http://www.w3.org/Graphics/SVG/1.1/DTD/svg11.dtd">
<!-- Uploaded to: SVG Repo, www.svgrepo.com, Generator: SVG Repo Mixer Tools -->
<svg version="1.1" id="arrow_up_double" xmlns="http://www.w3.org/2000/svg" xmlns:xlink="http://www.w3.org/1999/xlink" x="0px"
	 y="0px" width="800px" height="800px" viewBox="0 0 256 256" xml:space="preserve">
<style type="text/css">
<![CDATA[
	.st0{fill:#D1D1D1;}
	.st1{fill:#454545;}
]]>
</style>
<path fill="currentColor" class="st1" d="M40.032,126.924c-7.684,4.289-13.97,0.6-13.97-8.201v-9.434c0-8.8,6.142-19.757,13.648-24.349l73.234-44.798
	c7.507-4.592,19.791-4.592,27.297,0l73.234,44.798c7.507,4.592,13.648,15.549,13.648,24.349v9.434c0,8.8-6.286,12.49-13.97,8.201
	l-72.592-40.529c-7.684-4.29-20.256-4.29-27.94,0L40.032,126.924z"/>
<path fill="currentColor" class="st1" d="M40.032,224.532c-7.684,4.29-13.97,0.6-13.97-8.2v-9.436c0-8.8,6.142-19.757,13.648-24.35l73.234-44.797
	c7.507-4.593,19.791-4.593,27.297,0l73.234,44.797c7.507,4.593,13.648,15.55,13.648,24.35v9.436c0,8.8-6.287,12.49-13.97,8.2
	l-72.592-40.529c-7.684-4.29-20.256-4.29-27.94,0L40.032,224.532z"/>
</svg>