<?xml version="1.0" encoding="utf-8"?>
<!-- Generator: Adobe Illustrator 24.2.0, SVG Export Plug-In . SVG Version: 6.00 Build 0)  -->
<svg version="1.1" id="Layer_1" xmlns="http://www.w3.org/2000/svg" xmlns:xlink="http://www.w3.org/1999/xlink" x="0px" y="0px"
	 viewBox="0 0 403.2 280.8" style="enable-background:new 0 0 403.2 280.8;" xml:space="preserve">
<style type="text/css">
	.st0{fill:#FCAF17;}
	.st1{fill:#20409A;}
	.st2{fill:#00BAF2;}
</style>
<g>
	<path class="st0" d="M-941.4,159.6c8.6-1.9,18.2-0.2,24.9,5.6c11.6,9.8,12.5,29.3,2.6,40.6c-9.9,11.5-29.6,11.9-40.3,1.3
		c-9.9-10.2-10.6-28-1.5-39C-952.1,163.8-946.9,160.9-941.4,159.6z M-940.5,169.5c-13.2,4.1-15.6,23.8-5,31.9
		c6.9,5.6,18.1,4.7,23.9-2c6.2-7.3,5.9-19.3-0.9-26C-927.1,168.8-934.4,167.5-940.5,169.5z"/>
</g>
<path class="st0" d="M-1026,163.8c0.3-4.4,7.2-5.8,9.2-1.9c6.1,12,12.1,24.1,18,36.2c5.7-12,11.5-23.9,17.2-35.8
	c1.8-4.3,9.2-3.2,9.5,1.5c0.2,15,0,30,0.1,45c0.4,3.6-3.8,6.4-7,4.9c-2-0.7-3.2-2.8-3.2-4.9c-0.2-8.1,0-16.3-0.1-24.4
	c-3.4,6.4-6.3,13.1-9.6,19.5c-1.3,2.3-2,5.2-4,7.1c-2.3,2-6.3,1.3-7.6-1.6c-4.1-8.3-8.2-16.6-12.4-24.8c-0.1,8.4,0.1,16.8-0.1,25.2
	c-0.2,3.5-4.8,5.3-7.7,3.6c-2-1-2.6-3.5-2.5-5.6C-1026,193.2-1026.3,178.5-1026,163.8z"/>
<path class="st0" d="M-897.7,163.9c0.2-4.3,6.7-6.1,9-2.3c8.4,11.1,16.5,22.5,25.1,33.4c0-10.3-0.1-20.7,0.1-31
	c0.2-3.5,4.4-5.5,7.4-3.9c1.9,0.7,2.8,2.8,2.7,4.7c0,14.7,0,29.3,0,44c0.2,3-2.5,5.6-5.6,5.3c-3-0.2-4.3-3.2-6-5.3
	c-7.5-10-14.9-20.2-22.6-30.1c-0.1,10.4,0.2,20.8-0.1,31.1c-0.2,4.1-6.3,5.9-8.8,2.6c-1.5-1.5-1.2-3.7-1.3-5.6
	C-897.7,192.5-897.8,178.2-897.7,163.9z"/>
<path class="st0" d="M-842.7,164.9c-0.3-3.2,2.7-5.6,5.8-5.3c12.7-0.1,25.3,0,38-0.1c2.2-0.1,4.8,0.2,6,2.4
	c4.8,7.3,9.3,14.9,14,22.3c5-7.5,9.4-15.3,14.5-22.8c2.4-3.2,7.5-1.9,8.5,1.9v2.3c-5.4,9.8-12.1,18.9-17.8,28.5
	c-0.9,5.5,0.2,11.1-0.5,16.6c-1.1,4.6-8.3,4.7-9.6,0.2c-0.8-5.5,0.2-11.1-0.5-16.6c-5-8.4-10.5-16.6-15.7-24.9
	c-10.8,0-21.6,0-32.5,0c0,4.1,0,8.3,0,12.4c6.2,0.2,12.4-0.3,18.6,0.2c4.6,1.2,4.4,8.5-0.3,9.4c-6.1,0.4-12.2,0-18.3,0.1
	c0,4.3,0,8.6,0,12.9c7.9,0,15.8,0,23.7,0c1.7-0.1,3.7,0.3,4.7,1.9c2.4,2.9,0.1,8-3.8,7.9c-9,0.2-18,0-27,0.1c-2,0-4.4,0.3-6-1.3
	c-1.9-1.4-1.7-3.9-1.8-6C-842.7,192.9-842.8,178.9-842.7,164.9z"/>
<path class="st1" d="M-989.7,83c-2-5,5.9-7.9,8.3-3.7c5.6,12.6,10.4,25.6,16,38.2c5.3-12.7,10.6-25.4,16-38
	c2.3-4.5,10.5-1.6,8.4,3.5c-6.4,15.3-13.1,30.3-19.6,45.6c-0.8,1.8-2.2,4-4.5,3.9c-2.7,0.4-4.5-2-5.3-4.2
	C-976.7,113.1-983.5,98.2-989.7,83z"/>
<path class="st1" d="M-934,81.8c-0.1-4.4,6.3-6.3,8.6-2.6c8.8,11.7,17.5,23.5,26.3,35.2c0.3-11.2-0.2-22.4,0.2-33.5
	c1-4.7,8.6-4.7,9.4,0.1c0.5,14.3,0,28.7,0.2,43.1c-0.1,2.2,0.3,4.7-1,6.7c-1.9,2.3-5.8,2.5-7.6,0c-8.9-11.5-17.1-23.6-26.4-34.8
	c-0.2,10.7,0.1,21.4-0.1,32.1c0,3.6-4.5,5.7-7.4,3.8c-2.1-1.2-2.4-3.7-2.4-5.9C-933.9,111.2-934.1,96.5-934,81.8z"/>
<g>
	<path class="st1" d="M-877.2,81.9c-0.1-3.2,3.2-5.2,6.2-4.6c7.5,0.5,16-1.6,22.7,3.1c10.1,6.8,10.5,23.7,0.4,30.7
		c-5.7,4.1-13,3.2-19.5,3.3c0,4.5,0.1,9,0,13.6c-0.1,2.6-2.7,5.1-5.4,4.5c-2.8,0-4.5-3-4.3-5.5C-877.2,111.9-877.3,96.9-877.2,81.9z
		 M-867.5,86.5c0,6.1,0,12.2,0,18.4c4.2-0.3,8.6,0.7,12.6-0.8c6.7-3,6.3-14-0.3-16.9C-859.2,85.9-863.4,86.8-867.5,86.5z"/>
</g>
<path class="st1" d="M-839,80.9c0.3-2.4,2.7-3.9,5-3.7c12,0.1,24.1-0.1,36.1,0.1c4.4,0.6,4.9,7.7,0.6,8.9c-4.8,0.6-9.7,0.1-14.5,0.3
	c0,13.8,0.1,27.6,0,41.4c-0.1,3.3-4.2,5.6-7,3.9c-2-0.8-2.8-3-2.7-5c0-13.5,0-26.9,0-40.4c-4.5-0.1-9,0.1-13.4-0.1
	C-837.7,86.4-839.8,83.5-839,80.9z"/>
<g>
	<path class="st2" d="M-1254,73.3c8.4-8.5,20.1-13.3,31.9-13.7c12.7-0.4,25.4,4.5,34.5,13.4c9.3,9.3,18.7,18.7,28,28
		c1.9,2,4,3.8,5.7,5.9c-15.8,15.8-31.6,31.6-47.4,47.4c-6.6,6.5-13,13.1-19.6,19.5c-9.2-9.2-18.4-18.4-27.7-27.7
		c-3.7-3.7-7.5-7.2-10.6-11.5c-7.3-10-10.3-23-8.3-35.3C-1265.8,89.5-1261.1,80.2-1254,73.3z"/>
	<path class="st0" d="M-1095.7,60.5c11.5-2.3,23.9,0.1,33.9,6.2c9.3,5.8,16.5,14.8,19.9,25.2c4.1,12.1,3,25.8-3,37.1
		c-2.3,4.4-5.3,8.4-8.9,11.9c-11,10.9-21.9,21.9-32.8,32.8c-0.5-0.5-1.1-1-1.6-1.5c-21.9-21.7-43.7-43.7-65.5-65.5
		c11.3-11.3,22.5-22.6,33.8-33.8C-1113.3,66.5-1104.8,62.2-1095.7,60.5z"/>
	<path class="st1" d="M-1153.8,106.9l0.1-0.1c21.9,21.8,43.6,43.7,65.5,65.5c0.5,0.5,1,1,1.6,1.5c-8.7,8.8-17.5,17.5-26.2,26.2
		c-3.3,3.2-6.4,6.6-9.9,9.7c-7.2,6.3-16.4,10.3-26,11.3c-10.2,1.1-20.8-1.2-29.5-6.6c-4.5-2.7-8.4-6.3-12.1-10
		c-10.2-10.2-20.4-20.4-30.6-30.6c6.7-6.4,13.1-13,19.6-19.5C-1185.4,138.5-1169.7,122.7-1153.8,106.9z"/>
</g>
<g>
	<path class="st2" d="M-550.2-52.6c14.5-14.7,34.9-23.1,55.4-23.7c21.9-0.7,44.1,7.7,59.8,23.2c16.2,16.2,32.4,32.3,48.5,48.5
		c3.3,3.4,6.9,6.5,9.9,10.2C-404,33-431.4,60.4-458.8,87.8c-11.4,11.3-22.5,22.8-34.1,33.8c-16-16-32-32-48-48
		c-6.3-6.4-13.1-12.6-18.3-20c-12.6-17.4-17.8-39.9-14.3-61.1C-570.8-24.4-562.5-40.5-550.2-52.6z"/>
	<path class="st0" d="M-275.9-74.8c20-3.9,41.4,0.2,58.8,10.8c16.1,10,28.6,25.7,34.5,43.7c7,21,5.2,44.7-5.1,64.3
		c-4,7.6-9.2,14.6-15.4,20.6c-19,18.9-37.9,37.9-56.9,56.9c-0.9-0.9-1.9-1.7-2.8-2.5c-38-37.7-75.7-75.7-113.6-113.5
		c19.5-19.6,39.1-39.1,58.6-58.6C-306.3-64.3-291.6-71.9-275.9-74.8z"/>
	<g>
		<path class="st0" d="M-298.3,274.5c11-2.2,23.1-1.1,32.7,4.9c9.4,5.6,16,15.4,18,26.2c2.2,11.6,0.6,24.3-6.1,34.2
			c-5.9,9-15.9,15-26.5,16.7c-10.1,1.5-20.8,0.3-29.7-4.9c-10.2-5.7-17.2-16.4-19-27.8c-1.9-11.2-0.2-23.3,6.2-32.8
			C-317.1,282.5-308.1,276.6-298.3,274.5z M-294.7,288c-5.7,1.3-11,4.6-14.6,9.3c-8.9,11.5-7.6,29.9,3.4,39.5
			c9.6,8.6,25.5,8.6,35.3,0.3c12.8-10.7,12.9-33.1,0-43.8C-277.1,287.7-286.4,286.1-294.7,288z"/>
	</g>
	<path class="st0" d="M-422.8,280.6c0.3-6.4,10-8.4,13.2-3c9.6,18.3,18.3,37.1,28,55.3c8.7-18.2,17.6-36.3,26.5-54.5
		c2.7-6.2,13.5-4.6,13.8,2.4c0.1,23,0,46,0,69c-0.2,5.7-8.1,8.4-12.1,4.6c-2.4-1.8-2.7-4.9-2.7-7.6c0-12.4,0-24.7,0-37.1
		c-6.6,13.1-12.9,26.3-19.4,39.5c-2.2,5.1-10.6,5.4-13,0.3c-6.7-13-12.8-26.3-19.7-39.2c-0.1,13.2,0,26.4-0.1,39.6
		c-0.2,4.9-6.1,7.7-10.3,5.8c-2.5-1.2-4.5-3.9-4.2-6.8C-422.8,326-422.9,303.3-422.8,280.6z"/>
	<path class="st0" d="M-234.8,280.7c0.2-6.2,9.1-8.5,12.7-3.7c13.1,17.3,26.1,34.6,39.1,52c0.4-14.4,0.1-28.8,0.1-43.3
		c0.1-2.9-0.5-6.1,1.5-8.5c2.8-3.7,9.3-3.8,11.9,0.2c1.4,1.8,1.3,4.2,1.4,6.3c0,21,0,42.1,0,63.1c0,2.4-0.1,5.1-1.9,6.9
		c-3,3.5-9.4,2.9-11.8-1c-12.8-17.1-25.6-34.2-38.5-51.2c0,15.7,0,31.5,0,47.2c0.4,4-3.5,7.7-7.5,7.3c-3.8,0.2-7.4-3.4-7.1-7.3
		C-234.8,326.1-234.9,303.4-234.8,280.7z"/>
	<path class="st0" d="M-152.9,281.7c-0.3-3.9,3.2-7.5,7.1-7.2c20,0,40,0,60,0c2.7-0.3,5.1,1.4,6.4,3.7c7.1,11.3,14.2,22.6,21.3,33.8
		c6.8-10.7,13.6-21.5,20.4-32.2c1.6-2.9,4.3-5.7,7.9-5.3c5.3-0.1,8.2,6.7,5.4,10.9c-8.7,13.8-18,27.4-26.6,41.3
		c-0.4,8,0.2,16.1-0.3,24.1c-1.1,5.5-9.1,7.3-12.6,3c-2.2-2.1-1.8-5.3-1.8-8c-0.1-6.4,0.2-12.7-0.1-19.1
		c-7.9-12.9-16.4-25.4-24.3-38.2c-4.6-0.3-9.2-0.1-13.8,0.1c-11.4,0-22.8,0-34.3,0c0,6.5,0,13,0,19.5c8.8,0,17.5,0,26.3,0
		c3.6-0.3,7.1,3,7,6.6c0.4,4-3.2,7.4-7.1,7.3c-8.7,0.2-17.4,0-26.1,0.1c0,6.7,0,13.5,0,20.2c12.7,0.1,25.4,0,38.2,0
		c3.8-0.1,6.9,3.8,6.3,7.5c-0.1,3.3-3,6.2-6.3,6.3c-15.3,0.1-30.7,0-46,0c-3.8,0.2-7.3-3.4-7-7.2
		C-152.9,326.4-152.9,304.1-152.9,281.7z"/>
	<path class="st1" d="M-376.6,5.7l0.2-0.2c37.9,37.8,75.6,75.8,113.6,113.5c0.9,0.9,1.8,1.7,2.7,2.6c-15.1,15.2-30.3,30.3-45.5,45.5
		c-5.7,5.6-11.2,11.5-17.2,16.8c-12.5,11-28.5,17.9-45,19.6c-17.7,1.9-36-2-51.2-11.4c-7.9-4.6-14.6-10.9-20.9-17.4
		c-17.7-17.7-35.3-35.3-53-53c11.6-11.1,22.7-22.6,34.1-33.8C-431.4,60.4-404,33-376.6,5.7z"/>
	<path class="st1" d="M-727.6,276.1c3.6-3,10.3-1.9,11.8,2.8c7.6,18.2,15.2,36.4,22.8,54.7c7.8-18.4,15.6-36.9,23.5-55.3
		c2.1-5.4,11.4-5.2,13,0.4c0.9,2.2,0.1,4.6-0.8,6.6c-9.8,22.3-19.4,44.6-29.2,66.8c-2.2,5.2-10.7,5.2-12.8-0.1
		c-9.8-22-19.3-44.2-29-66.3C-729.7,282.8-730.2,278.7-727.6,276.1z"/>
	<path class="st1" d="M-646.3,281.8c-0.2-4,3.4-7.7,7.4-7.3c4.3-0.3,6.5,3.9,8.7,6.8c12.1,15.9,24,32,36.1,47.9
		c0.1-16.1,0-32.3,0-48.4c0.3-4.4,5.1-7.2,9.2-6.1c3.3,0.6,5.5,3.9,5.3,7.2c0,21.3,0,42.6,0,63.9c0,2.6,0.4,5.5-1.5,7.7
		c-2.2,3.1-6.7,3.1-9.8,1.6c-2.1-1.7-3.6-4.1-5.2-6.3c-11.8-15.8-23.7-31.5-35.5-47.2c0,15.7,0,31.4,0,47.1c0.2,3.9-3.2,7.7-7.2,7.4
		c-4.1,0.4-7.7-3.3-7.5-7.3C-646.4,326.4-646.4,304.1-646.3,281.8z"/>
	<g>
		<path class="st1" d="M-561.8,281.6c-0.1-3.7,3.1-7.2,6.9-7.1c7,0,14,0,21,0c8.8-0.1,17.7,4.3,22.4,11.8c7.9,12.3,5.3,31.3-7.8,39
			c-8.3,5.4-18.5,3.7-27.8,4c0,6.8,0.1,13.6,0,20.5c-0.2,4.2-4.8,7.2-8.8,6.2c-3.8-0.6-6.3-4.5-5.9-8.2
			C-561.8,325.7-561.9,303.7-561.8,281.6z M-547.1,288.5c0,8.9,0,17.8,0,26.7c6.6-0.6,13.8,1.5,19.8-1.9c8.9-5.3,7.3-20.8-2.6-24.2
			C-535.5,287.8-541.4,288.8-547.1,288.5z"/>
	</g>
	<path class="st1" d="M-505.1,281.7c-0.4-3.6,2.7-7.2,6.3-7.2c18,0,36,0,54,0c5.6-0.3,8.5,7.2,5.1,11.3c-1.4,2-3.8,2.7-6.1,2.7
		c-6.2,0.1-12.3,0-18.5,0c0,20.1,0,40.2,0,60.3c0.3,4-3.5,7.6-7.5,7.2c-4,0.3-7.4-3.4-7.3-7.3c-0.1-20.1,0-40.2,0-60.3
		c-6.5-0.1-13,0.1-19.4-0.1C-502.1,288.4-505.3,285.3-505.1,281.7z"/>
</g>
<g>
	<path class="st2" d="M27.9,24.1C42.4,9.4,62.7,1,83.2,0.4c21.9-0.7,44.1,7.7,59.8,23.2c16.2,16.2,32.4,32.3,48.5,48.5
		c3.3,3.4,6.9,6.6,9.9,10.2c-27.4,27.3-54.8,54.8-82.2,82.1c-11.4,11.3-22.5,22.8-34.1,33.8c-16-16-32-32-48-48
		c-6.3-6.4-13.1-12.6-18.3-19.9C6.3,112.9,1.1,90.4,4.6,69.2C7.3,52.2,15.5,36.1,27.9,24.1z"/>
	<path class="st0" d="M302.2,1.8c20-3.9,41.4,0.2,58.8,10.8c16.1,10,28.6,25.7,34.5,43.7c7,21,5.2,44.7-5.1,64.3
		c-4,7.6-9.2,14.6-15.4,20.6c-19,18.9-37.9,37.9-56.9,56.9c-0.9-0.9-1.9-1.7-2.8-2.5c-38-37.7-75.7-75.7-113.6-113.5
		c19.5-19.6,39.1-39.1,58.6-58.6C271.7,12.3,286.5,4.7,302.2,1.8z"/>
	<path class="st1" d="M201.4,82.3l0.2-0.2c37.9,37.8,75.6,75.8,113.6,113.5c0.9,0.9,1.8,1.7,2.7,2.6c-15.1,15.2-30.3,30.3-45.4,45.5
		c-5.7,5.6-11.2,11.5-17.2,16.7c-12.5,11-28.5,17.9-45,19.6c-17.7,1.9-36-2-51.2-11.4c-7.9-4.6-14.6-10.9-20.9-17.4
		c-17.7-17.7-35.3-35.3-53-53c11.6-11.1,22.7-22.6,34.1-33.8C146.7,137.1,174,109.6,201.4,82.3z"/>
</g>
</svg>
