<svg width="24" height="24" viewBox="0 0 24 24" fill="none" xmlns="http://www.w3.org/2000/svg">
<!-- <rect width="24" height="24" fill="white"/> -->
<path fill-rule="evenodd" clip-rule="evenodd" d="M2.87868 3.87868C2 4.75736 2 6.17157 2 9L2 15C2 17.8284 2 19.2426 2.87868 20.1213C3.75736 21 5.17157 21 8 21L18 21C18.93 21 19.395 21 19.7765 20.8978C20.8117 20.6204 21.6204 19.8117 21.8978 18.7765C22 18.395 22 17.93 22 17L16 17C14.3431 17 13 15.6569 13 14C13 12.3431 14.3431 11 16 11L22 11L22 9C22 6.17157 22 4.75736 21.1213 3.87868C20.2426 3 18.8284 3 16 3L8 3C5.17157 3 3.75736 3 2.87868 3.87868ZM7 7C6.44772 7 6 7.44772 6 8C6 8.55228 6.44772 9 7 9L10 9C10.5523 9 11 8.55228 11 8C11 7.44772 10.5523 7 10 7L7 7Z" fill="white"/>
<path d="M19.7765 20.8978L19.9706 21.6222L19.7765 20.8978ZM21.8978 18.7765L21.1733 18.5823L21.1733 18.5823L21.8978 18.7765ZM22 17L22.75 17L22.75 16.25L22 16.25L22 17ZM22 11L22 11.75L22.75 11.75L22.75 11L22 11ZM7 7L7 7.75L7 7ZM7 9L7 9.75L7 9ZM10 9L10 8.25L10 9ZM10 7L10 6.25L10 7ZM2.75 9C2.75 7.56458 2.75159 6.56347 2.85315 5.80812C2.9518 5.07434 3.13225 4.68577 3.40901 4.40901L2.34835 3.34835C1.74643 3.95027 1.48754 4.70814 1.36652 5.60825C1.24841 6.48678 1.25 7.60699 1.25 9L2.75 9ZM2.75 15L2.75 9L1.25 9L1.25 15L2.75 15ZM3.40901 19.591C3.13225 19.3142 2.9518 18.9257 2.85315 18.1919C2.75159 17.4365 2.75 16.4354 2.75 15L1.25 15C1.25 16.393 1.24841 17.5132 1.36652 18.3918C1.48754 19.2919 1.74643 20.0497 2.34835 20.6517L3.40901 19.591ZM8 20.25C6.56458 20.25 5.56347 20.2484 4.80812 20.1469C4.07434 20.0482 3.68577 19.8678 3.40901 19.591L2.34835 20.6517C2.95027 21.2536 3.70814 21.5125 4.60825 21.6335C5.48678 21.7516 6.60699 21.75 8 21.75L8 20.25ZM18 20.25L8 20.25L8 21.75L18 21.75L18 20.25ZM19.5823 20.1733C19.3203 20.2436 18.9783 20.25 18 20.25L18 21.75C18.8817 21.75 19.4697 21.7564 19.9706 21.6222L19.5823 20.1733ZM21.1733 18.5823C20.9653 19.3588 20.3588 19.9653 19.5823 20.1733L19.9706 21.6222C21.2647 21.2755 22.2755 20.2647 22.6222 18.9706L21.1733 18.5823ZM21.25 17C21.25 17.9783 21.2436 18.3203 21.1733 18.5823L22.6222 18.9706C22.7564 18.4697 22.75 17.8817 22.75 17L21.25 17ZM16 17.75L22 17.75L22 16.25L16 16.25L16 17.75ZM12.25 14C12.25 16.0711 13.9289 17.75 16 17.75L16 16.25C14.7574 16.25 13.75 15.2426 13.75 14L12.25 14ZM16 10.25C13.9289 10.25 12.25 11.9289 12.25 14L13.75 14C13.75 12.7574 14.7574 11.75 16 11.75L16 10.25ZM22 10.25L16 10.25L16 11.75L22 11.75L22 10.25ZM21.25 9L21.25 11L22.75 11L22.75 9L21.25 9ZM20.591 4.40901C20.8678 4.68577 21.0482 5.07435 21.1469 5.80812C21.2484 6.56347 21.25 7.56458 21.25 9L22.75 9C22.75 7.60699 22.7516 6.48678 22.6335 5.60825C22.5125 4.70814 22.2536 3.95027 21.6517 3.34835L20.591 4.40901ZM16 3.75C17.4354 3.75 18.4365 3.75159 19.1919 3.85315C19.9257 3.9518 20.3142 4.13225 20.591 4.40901L21.6517 3.34835C21.0497 2.74643 20.2919 2.48754 19.3918 2.36652C18.5132 2.24841 17.393 2.25 16 2.25L16 3.75ZM8 3.75L16 3.75L16 2.25L8 2.25L8 3.75ZM3.40901 4.40901C3.68577 4.13225 4.07434 3.9518 4.80812 3.85315C5.56347 3.75159 6.56458 3.75 8 3.75L8 2.25C6.60699 2.25 5.48678 2.24841 4.60825 2.36652C3.70814 2.48754 2.95027 2.74643 2.34835 3.34835L3.40901 4.40901ZM6.75 8C6.75 7.86193 6.86193 7.75 7 7.75L7 6.25C6.0335 6.25 5.25 7.0335 5.25 8L6.75 8ZM7 8.25C6.86193 8.25 6.75 8.13807 6.75 8L5.25 8C5.25 8.9665 6.0335 9.75 7 9.75L7 8.25ZM10 8.25L7 8.25L7 9.75L10 9.75L10 8.25ZM10.25 8C10.25 8.13807 10.1381 8.25 10 8.25L10 9.75C10.9665 9.75 11.75 8.9665 11.75 8L10.25 8ZM10 7.75C10.1381 7.75 10.25 7.86193 10.25 8L11.75 8C11.75 7.0335 10.9665 6.25 10 6.25L10 7.75ZM7 7.75L10 7.75L10 6.25L7 6.25L7 7.75Z" fill="currentColor"/>
<path d="M17 14L16 14" stroke="currentColor" stroke-width="2" stroke-linecap="round"/>
</svg>
