<?xml version="1.0" encoding="UTF-8"?>
<svg xmlns="http://www.w3.org/2000/svg" xmlns:xlink="http://www.w3.org/1999/xlink" width="24px" height="24px" viewBox="0 0 24 24" version="1.1">
<g id="surface1">
<path style=" stroke:none;fill-rule:nonzero;fill:rgb(64.313725%,12.156863%,40.392157%);fill-opacity:1;" d="M 16.816406 4.199219 C 14.835938 4.199219 13.230469 5.796875 13.230469 7.765625 C 13.230469 9.734375 14.835938 11.332031 16.816406 11.332031 C 18.796875 11.332031 20.398438 9.734375 20.398438 7.765625 C 20.398438 6.820312 20.023438 5.914062 19.351562 5.242188 C 18.675781 4.574219 17.765625 4.199219 16.816406 4.199219 M 16.816406 9.28125 C 15.976562 9.28125 15.296875 8.605469 15.292969 7.765625 C 15.292969 6.925781 15.976562 6.246094 16.816406 6.25 C 17.65625 6.25 18.335938 6.925781 18.339844 7.765625 C 18.339844 8.167969 18.179688 8.554688 17.894531 8.835938 C 17.605469 9.121094 17.21875 9.28125 16.816406 9.28125 M 12.203125 6.875 L 12.203125 11.332031 L 10.140625 11.332031 L 10.140625 6.851562 C 10.140625 6.636719 10.027344 6.4375 9.839844 6.332031 C 9.652344 6.222656 9.421875 6.222656 9.234375 6.332031 C 9.046875 6.4375 8.929688 6.636719 8.929688 6.851562 L 8.929688 11.332031 L 6.871094 11.332031 L 6.871094 6.851562 C 6.871094 6.519531 6.597656 6.25 6.265625 6.25 C 5.929688 6.25 5.660156 6.519531 5.660156 6.851562 L 5.660156 11.332031 L 3.601562 11.332031 L 3.601562 6.875 C 3.601562 5.863281 4.175781 4.9375 5.085938 4.484375 C 5.996094 4.03125 7.085938 4.128906 7.902344 4.734375 C 8.714844 4.125 9.804688 4.03125 10.714844 4.484375 C 11.625 4.933594 12.199219 5.859375 12.203125 6.875 M 16.816406 12.867188 C 14.835938 12.867188 13.230469 14.464844 13.230469 16.433594 C 13.230469 18.402344 14.835938 20 16.816406 20 C 18.796875 20 20.398438 18.402344 20.398438 16.433594 C 20.398438 15.488281 20.023438 14.582031 19.351562 13.914062 C 18.675781 13.242188 17.765625 12.867188 16.816406 12.867188 M 16.816406 17.949219 C 16.203125 17.949219 15.644531 17.582031 15.410156 17.015625 C 15.171875 16.449219 15.304688 15.796875 15.738281 15.363281 C 16.175781 14.929688 16.828125 14.800781 17.398438 15.035156 C 17.96875 15.265625 18.339844 15.820312 18.339844 16.433594 C 18.335938 17.273438 17.65625 17.953125 16.816406 17.949219 M 12.203125 15.542969 L 12.203125 20 L 10.140625 20 L 10.140625 15.519531 C 10.140625 15.304688 10.027344 15.105469 9.839844 15 C 9.652344 14.890625 9.421875 14.890625 9.234375 15 C 9.046875 15.105469 8.929688 15.304688 8.929688 15.519531 L 8.929688 20 L 6.871094 20 L 6.871094 15.519531 C 6.871094 15.1875 6.597656 14.917969 6.265625 14.917969 C 5.929688 14.917969 5.660156 15.1875 5.660156 15.519531 L 5.660156 20 L 3.601562 20 L 3.601562 15.542969 C 3.601562 14.53125 4.175781 13.605469 5.085938 13.152344 C 5.996094 12.699219 7.085938 12.796875 7.902344 13.402344 C 8.714844 12.796875 9.804688 12.699219 10.714844 13.152344 C 11.625 13.601562 12.199219 14.527344 12.203125 15.542969 "/>
</g>
</svg>
