<!DOCTYPE svg PUBLIC "-//W3C//DTD SVG 1.1//EN" "http://www.w3.org/Graphics/SVG/1.1/DTD/svg11.dtd">

<!-- Uploaded to: SVG Repo, www.svgrepo.com, Transformed by: SVG Repo Mixer Tools -->
<svg width="256px" height="256px" viewBox="0 0 25.00 25.00" fill="none" xmlns="http://www.w3.org/2000/svg" stroke="currentColor" stroke-width="1.75" transform="rotate(0)matrix(1, 0, 0, 1, 0, 0)">

<g id="SVGRepo_bgCarrier" stroke-width="0"/>

<g id="SVGRepo_iconCarrier"> <path d="M10 3.21001C5.71 4.13001 2.5 7.93001 2.5 12.5C2.5 17.75 6.75 22 12 22C16.56 22 20.37 18.79 21.29 14.5" stroke="currentColor" stroke-miterlimit="10" stroke-linecap="round" stroke-linejoin="round"/> <path d="M17.15 4.54C16.69 4.24 16.2 3.98 15.69 3.75C14.55 3.27 13.31 3 12 3V9.97" stroke="currentColor" stroke-miterlimit="10" stroke-linecap="round" stroke-linejoin="round"/> <path d="M21.07 9.69C20.6 8.2 19.78 6.87 18.7 5.8H18.69L12 12.5H13L21.5 12.52C21.5 12.51 21.5 12.51 21.5 12.5C21.5 11.52 21.35 10.58 21.07 9.69Z" stroke="currentColor" stroke-miterlimit="10" stroke-linecap="round" stroke-linejoin="round"/> </g>

</svg>